<?xml version="1.0" encoding="UTF-8"?>
<!DOCTYPE svg PUBLIC "-//W3C//DTD SVG 1.1//EN" "http://www.w3.org/Graphics/SVG/1.1/DTD/svg11.dtd">
<!-- Creator: CorelDRAW -->
<svg xmlns="http://www.w3.org/2000/svg" xml:space="preserve" width="1650px" height="2550px" version="1.1" style="shape-rendering:geometricPrecision; text-rendering:geometricPrecision; image-rendering:optimizeQuality; fill-rule:evenodd; clip-rule:evenodd"
viewBox="0 0 1650 2550"
 xmlns:xlink="http://www.w3.org/1999/xlink"
 xmlns:xodm="http://www.corel.com/coreldraw/odm/2003">
 <defs>
  <style type="text/css">
   <![CDATA[
    .fil1 {fill:#181918}
    .fil0 {fill:#E84D8C}
    .fil3 {fill:#F4A4C7}
    .fil2 {fill:#FEFEFE}
   ]]>
  </style>
 </defs>
 <g id="Layer_x0020_1">
  <metadata id="CorelCorpID_0Corel-Layer"/>
  <g id="_2964280848144">
   <path class="fil0" d="M626.11 1226.07c6.09,-0.54 32.41,-0.85 37.35,0.42l-0.12 37.19c-4.47,1.13 -32.01,1.06 -37.08,0.21l-0.15 -37.82zm43.28 -53.82l35.92 0.35 0.03 17.74 0.01 12.95 -0.27 5.9 -35.84 -0.36 0.15 -36.58zm-23.64 -4.18l-0.41 7.86 -4.19 0.12c-1.63,6.84 -9.89,20.09 -13.12,28.31 -3.73,9.49 -7.29,19.79 -10.12,29.77 -12.96,45.73 -11.35,92.87 3.82,137.78 10.13,29.98 39.34,60.22 39.13,62.63 -3.03,-22.11 -15.74,-47.17 1.41,-76.51 21.44,-36.7 51.78,-54.58 87.36,-75.91l49.83 -32.28c-2.41,3.45 -14.01,12.56 -17.24,15.02 -26.7,20.42 -55.44,38.78 -79.03,62.44 -14.27,14.31 -23.36,25.34 -32.51,45.17 -6.84,14.8 -11.13,32.96 -10.6,51.97 0.58,20.68 5.19,26.39 20.99,41.49l26.05 21.78c2.56,1.81 6.21,3.98 9.01,5.95 12.64,8.89 24.37,13.76 32.27,17.24 2.16,0.52 4.65,1.47 7.59,3.46l17.01 6.1c0.59,0.15 11.89,2.1 12.43,2.29 26.18,1.42 23.03,1.52 0,0 0.66,0.06 1.32,0.15 1.97,0.25 2.39,0.08 4.68,0.41 7.05,0.73 1.72,0 3.25,-0.1 5.09,0.14 1.26,0.15 95.6,-11.62 96.69,-11.23 7.39,0.46 -51.23,-5.4 -43.73,-5.45 0.09,-1.83 -0.74,1.68 0,0 -108.62,-29.86 -159.7,-132.5 -87.22,-201.47 14.91,-14.19 60.58,-50.57 66.01,-56.5 3.63,-3.97 5.15,-5.32 8.34,-8.6 6.22,-6.4 10.9,-10.82 16.74,-18.11 18.35,-22.89 42.4,-56.05 42.13,-98.21l2.22 4.96c2.18,5.6 2.28,5.82 0,0 5.23,15.33 5.9,19.92 4.74,15.15 0.83,13.12 -0.06,33 -3.63,44.9 -3.05,10.14 -3.63,22.32 3.18,29.6 0.08,-2.98 6.65,-13.34 8.63,-17.88 2.69,-6.14 4.94,-13.18 6.46,-20.32 7.97,-37.41 -2.63,-71.96 -30.06,-97.06 -9.89,-9.04 -18.16,-7.58 -13.53,-10.14 -2.13,-0.89 -13.91,-3.82 -17.37,-4.72 -41.4,-10.76 -87.41,-0.68 -124.01,17.52 -18.74,9.31 -35.95,20.96 -50.23,35.43 -14.27,14.48 -17.69,16.54 -30.48,34.3 -2.07,2.89 -6.19,10.16 -8.67,12.03z"/>
   <path class="fil1" d="M971.74 1432.33l-0.11 -9.75c4.64,-1.89 23.14,-13.89 27.2,-17.39 -2.95,-3.03 -23.01,-15.94 -27.15,-17.43l0.13 -9.77c4.99,1.66 28.3,18.19 37,23.2 0.49,8.3 0.47,7.76 -5.51,11.37 -7.43,4.49 -25.9,18.04 -31.56,19.77zm-86.79 -30.62c5.38,-3.78 32.88,-22.59 37.2,-23.57l-0.19 9.08 -27.01 17.97 27.13 17.97 -0.05 8.91c-3.24,-0.64 -33.38,-20.19 -37.27,-23.33l0.19 -7.03zm72.16 -42.14l8.55 0.11 -28.16 89.63 -9.38 -0.09 28.99 -89.65zm-55.69 -140.94c2.45,5.17 10.44,13.7 14.1,16.96 4.15,3.67 13.32,8.79 7.87,18.42 -3.1,5.48 -11.04,9.3 -17.08,12.74 -11.46,6.51 -0.28,12.51 0.98,18.92 -1.51,5.07 -6.29,8.1 -11.06,9.79l3.06 2.24c1.73,1.27 1.1,0.08 2.53,2.41 6.16,10.09 -8.14,11.25 -10.14,16.86 -3.15,8.81 7.42,22.13 -5.87,30.92 -14.87,9.83 -58.39,-5.83 -70.86,0.84 -11.16,5.96 -25.12,30.09 -29.89,47.91 -6.16,22.99 -3.9,45.1 6.47,64.47 9.25,17.25 22.1,29.62 39.54,39.22 16.95,9.33 42.57,14.81 65.16,12.31 26.64,-2.96 77.5,-38.43 95.91,-59.44l18.08 -21.77c46.17,-63.47 55.12,-140.37 29.9,-214.81 -24.02,-70.9 -93.35,-133.29 -167.19,-143.4 -4.64,2.56 3.63,1.1 13.52,10.14 27.43,25.1 38.04,59.65 30.07,97.06 -1.53,7.15 -3.78,14.18 -6.46,20.33 -1.99,4.54 -8.55,14.89 -8.64,17.88z"/>
   <polygon class="fil0" points="504.61,1587.29 504.61,1587.27 501.64,1587.29 "/>
   <path class="fil1" d="M638.28 1174.34l4.18 -0.12 0.42 -7.86 -0.04 -38.91c-3.28,-0.42 -43.65,-1.4 -45.55,0.58 -1.48,3.03 -1.47,42.43 -0.1,45.67 4.5,2.23 33.7,1.15 41.09,0.64z"/>
   <polygon class="fil0" points="519.06,1169.92 556.94,1169.7 557.21,1131.14 519.4,1130.79 "/>
   <path class="fil2" d="M623.38 1262.19c5.07,0.85 32.61,0.92 37.08,-0.21l0.13 -37.19c-4.95,-1.27 -31.27,-0.96 -37.35,-0.43l0.14 37.83z"/>
   <polygon class="fil2" points="581.5,1105.73 618.28,1105.58 618.26,1068.99 581.26,1069.19 "/>
   <polygon class="fil2" points="666.36,1207.13 702.2,1207.48 702.47,1201.59 702.47,1188.64 702.43,1170.9 666.51,1170.55 "/>
   <polygon class="fil2" points="592.17,1231.95 592.59,1196.52 555.84,1196.54 555.86,1232.38 "/>
   <path class="fil0" d="M581.26 1069.19l37 -0.2 0.02 36.59 -36.78 0.15 -0.24 -36.54zm42.71 42.58c1.42,-6.16 0.98,-41.14 0.27,-48.72l-48.8 -0.13 -0.26 42.14c-0.03,1.96 -0.39,4.93 0.86,6.14 2.24,2.18 41.64,1.17 47.93,0.57z"/>
   <path class="fil0" d="M592.59 1196.52l-0.42 35.43c-2.31,1.5 -1.71,1.12 -7.89,1.27l-28.54 -0.23c-1.95,-4.8 -1.5,-31.53 -0.32,-37.3 6.27,-0.36 12.61,-0.3 18.89,-0.09l15.94 -0.1c1.73,0.34 1.69,0.63 2.34,1.02zm-42.28 -6.53l-0.92 6.55c-0.05,2.29 0.02,4.72 0.01,7.04l-0.2 28.98c-0.02,8.93 1.63,6.48 23.12,6.53l25.33 -0.18c1.88,-4.17 1.69,-43.46 0.36,-49l-47.7 0.08z"/>
   <polygon class="fil0" points="928.83,1447.8 938.21,1447.89 966.37,1358.26 957.81,1358.16 "/>
   <path class="fil0" d="M885.65 1400.29l-0.18 7.04c3.89,3.14 34.03,22.69 37.27,23.32l0.05 -8.91 -27.13 -17.97 27.01 -17.97 0.19 -9.08c-4.33,0.98 -31.82,19.79 -37.21,23.57z"/>
   <path class="fil0" d="M972.39 1386.34c4.14,1.49 24.2,14.4 27.15,17.43 -4.06,3.51 -22.56,15.5 -27.2,17.39l0.11 9.75c5.66,-1.73 24.13,-15.28 31.56,-19.76 5.98,-3.61 5.99,-3.08 5.51,-11.38 -8.7,-5.01 -32.01,-21.54 -37.01,-23.2l-0.12 9.77z"/>
   <path class="fil3" d="M592.17 1231.95l-36.31 0.43 -0.02 -35.84 36.75 -0.02c-0.65,-0.39 -0.61,-0.68 -2.34,-1.02l-15.94 0.1c-6.28,-0.21 -12.62,-0.27 -18.89,0.09 -1.18,5.77 -1.63,32.5 0.32,37.3l28.54 0.23c6.18,-0.15 5.58,0.23 7.89,-1.27z"/>
  </g>
 </g>
</svg>
